<svg xmlns="http://www.w3.org/2000/svg" width="1536" height="512" viewBox="0 0 1536 512" data-asset-id="captured-reservoir" data-background="transparent">

<defs>
  <radialGradient id="steel" cx="38%" cy="30%">
    <stop offset="0" stop-color="#355078"/><stop offset=".45" stop-color="#17243a"/><stop offset="1" stop-color="#050811"/>
  </radialGradient>
  <linearGradient id="brass" x1="0" y1="0" x2="1" y2="1">
    <stop offset="0" stop-color="#fff0a8"/><stop offset=".28" stop-color="#d9a83f"/><stop offset=".62" stop-color="#7a4814"/><stop offset="1" stop-color="#f1ca68"/>
  </linearGradient>
  <radialGradient id="obsidian"><stop offset="0" stop-color="#253044"/><stop offset=".55" stop-color="#070a10"/><stop offset="1" stop-color="#000"/></radialGradient>
  <filter id="soft"><feDropShadow dx="0" dy="7" stdDeviation="7" flood-color="#000" flood-opacity=".65"/></filter>
</defs>

<g filter="url(#soft)">
<path d="M40 112Q90 65 160 82H1376Q1448 66 1496 112V400Q1444 448 1376 430H160Q92 450 40 400Z" fill="url(#steel)" stroke="url(#brass)" stroke-width="12"/>
<rect x="164" y="145" width="1208" height="222" rx="48" fill="#05080e" stroke="#d7aa4b" stroke-width="6"/>
<path d="M210 125h1116M210 387h1116" stroke="#f0c864" stroke-width="4" opacity=".7"/>
<g transform="translate(118 256)"><circle r="78" fill="#080b12" stroke="url(#brass)" stroke-width="10"/><path d="M-15-48a54 54 0 0 0 40 94a42 42 0 1 1-40-94z" fill="#eff3f7"/></g>
<g transform="translate(1418 256)"><circle r="78" fill="#4b130b" stroke="url(#brass)" stroke-width="10"/><circle r="38" fill="#f0ad2c"/><g fill="#ffd86a"><path d="M-4-55L0-72L4-55L0-43Z" transform="rotate(0)"/><path d="M-4-55L0-72L4-55L0-43Z" transform="rotate(30)"/><path d="M-4-55L0-72L4-55L0-43Z" transform="rotate(60)"/><path d="M-4-55L0-72L4-55L0-43Z" transform="rotate(90)"/><path d="M-4-55L0-72L4-55L0-43Z" transform="rotate(120)"/><path d="M-4-55L0-72L4-55L0-43Z" transform="rotate(150)"/><path d="M-4-55L0-72L4-55L0-43Z" transform="rotate(180)"/><path d="M-4-55L0-72L4-55L0-43Z" transform="rotate(210)"/><path d="M-4-55L0-72L4-55L0-43Z" transform="rotate(240)"/><path d="M-4-55L0-72L4-55L0-43Z" transform="rotate(270)"/><path d="M-4-55L0-72L4-55L0-43Z" transform="rotate(300)"/><path d="M-4-55L0-72L4-55L0-43Z" transform="rotate(330)"/></g></g>
</g></svg>
