<svg xmlns="http://www.w3.org/2000/svg" width="256" height="1024" viewBox="0 0 256 1024" data-asset-id="rail-flourish" data-background="transparent">

<defs>
  <radialGradient id="steel" cx="38%" cy="30%">
    <stop offset="0" stop-color="#355078"/><stop offset=".45" stop-color="#17243a"/><stop offset="1" stop-color="#050811"/>
  </radialGradient>
  <linearGradient id="brass" x1="0" y1="0" x2="1" y2="1">
    <stop offset="0" stop-color="#fff0a8"/><stop offset=".28" stop-color="#d9a83f"/><stop offset=".62" stop-color="#7a4814"/><stop offset="1" stop-color="#f1ca68"/>
  </linearGradient>
  <radialGradient id="obsidian"><stop offset="0" stop-color="#253044"/><stop offset=".55" stop-color="#070a10"/><stop offset="1" stop-color="#000"/></radialGradient>
  <filter id="soft"><feDropShadow dx="0" dy="7" stdDeviation="7" flood-color="#000" flood-opacity=".65"/></filter>
</defs>

<g filter="url(#soft)">
<path d="M128 18L173 82L158 942L128 1006L98 942L83 82Z" fill="url(#steel)" stroke="url(#brass)" stroke-width="9"/>
<path d="M108 120v790M148 120v790" stroke="#d6a847" stroke-width="4" opacity=".75"/>
<path d="M104 250c70 110-40 250 48 370S92 826 142 930" fill="none" stroke="#e0b24c" stroke-width="5"/>
<circle cx="128" cy="95" r="48" fill="#080b12" stroke="url(#brass)" stroke-width="8"/>
<path d="M117 60a37 37 0 0 0 28 65a29 29 0 1 1-28-65z" fill="#eef2f7"/>
<circle cx="128" cy="925" r="45" fill="#6d3b08" stroke="url(#brass)" stroke-width="8"/>
<g fill="#f2c34e" transform="translate(128 925)"><path d="M-4-34L0-50L4-34L0-25Z" transform="rotate(0)"/><path d="M-4-34L0-50L4-34L0-25Z" transform="rotate(30)"/><path d="M-4-34L0-50L4-34L0-25Z" transform="rotate(60)"/><path d="M-4-34L0-50L4-34L0-25Z" transform="rotate(90)"/><path d="M-4-34L0-50L4-34L0-25Z" transform="rotate(120)"/><path d="M-4-34L0-50L4-34L0-25Z" transform="rotate(150)"/><path d="M-4-34L0-50L4-34L0-25Z" transform="rotate(180)"/><path d="M-4-34L0-50L4-34L0-25Z" transform="rotate(210)"/><path d="M-4-34L0-50L4-34L0-25Z" transform="rotate(240)"/><path d="M-4-34L0-50L4-34L0-25Z" transform="rotate(270)"/><path d="M-4-34L0-50L4-34L0-25Z" transform="rotate(300)"/><path d="M-4-34L0-50L4-34L0-25Z" transform="rotate(330)"/></g>
</g></svg>
